<svg width="100" height="30" viewBox="0 0 100 30" fill="none" xmlns="http://www.w3.org/2000/svg">
<path d="M20.25 15.125L24.75 10.625L20.25 6.125V15.125Z" fill="#00BFFF"/>
<path d="M15.75 10.625L11.25 15.125L15.75 19.625V10.625Z" fill="#00BFFF"/>
<path d="M15.75 24.125L11.25 19.625L15.75 15.125L20.25 10.625L15.75 6.125V24.125Z" fill="#00BFFF"/>
<path d="M29.25 15.125L24.75 19.625L29.25 24.125V15.125Z" fill="#00BFFF"/>
<path d="M41.5 15C41.5 18.0375 40.4875 20.65 38.4625 22.8375C36.4375 25.025 33.725 26.125 30.325 26.125C26.925 26.125 24.2125 25.025 22.1875 22.8375C20.1625 20.65 19.15 18.0375 19.15 15C19.15 11.9625 20.1625 9.35 22.1875 7.1625C24.2125 4.975 26.925 3.875 30.325 3.875C33.725 3.875 36.4375 4.975 38.4625 7.1625C40.4875 9.35 41.5 11.9625 41.5 15ZM37.075 15C37.075 12.8 36.3375 10.975 34.8625 9.5375C33.3875 8.1 31.95 7.375 30.55 7.375C29.15 7.375 27.7125 8.1 26.2375 9.5375C24.7625 10.975 24.025 12.8 24.025 15C24.025 17.2 24.7625 19.025 26.2375 20.4625C27.7125 21.9 29.15 22.625 30.55 22.625C31.95 22.625 33.3875 21.9 34.8625 20.4625C36.3375 19.025 37.075 17.2 37.075 15Z" fill="#00BFFF"/>
<path d="M49.25 15C49.25 18.0375 48.2375 20.65 46.2125 22.8375C44.1875 25.025 41.475 26.125 38.075 26.125C34.675 26.125 31.9625 25.025 29.9375 22.8375C27.9125 20.65 26.9 18.0375 26.9 15C26.9 11.9625 27.9125 9.35 29.9375 7.1625C31.9625 4.975 34.675 3.875 38.075 3.875C41.475 3.875 44.1875 4.975 46.2125 7.1625C48.2375 9.35 49.25 11.9625 49.25 15ZM44.825 15C44.825 12.8 44.0875 10.975 42.6125 9.5375C41.1375 8.1 39.7 7.375 38.3 7.375C36.9 7.375 35.4625 8.1 33.9875 9.5375C32.5125 10.975 31.775 12.8 31.775 15C31.775 17.2 32.5125 19.025 33.9875 20.4625C35.4625 21.9 36.9 22.625 38.3 22.625C39.7 22.625 41.1375 21.9 42.6125 20.4625C44.0875 19.025 44.825 17.2 44.825 15Z" fill="#00BFFF"/>
<path d="M60.1 25.625H55.45L52.825 18.075L50.15 25.625H45.5L49.9 13.125H51.7L56.125 25.625H60.1Z" fill="#00BFFF"/>
<path d="M66.425 25.625H61.775L59.15 18.075L56.475 25.625H51.825L56.225 13.125H53.075L57.5 25.625H66.425Z" fill="#00BFFF"/>
<path d="M74.95 25.625H70.3L67.675 18.075L65 25.625H60.35L64.75 13.125H66.55L70.975 25.625H74.95Z" fill="#00BFFF"/>
<path d="M81.275 25.625H76.625L74 18.075L71.325 25.625H66.675L71.075 13.125H67.925L72.35 25.625H81.275Z" fill="#00BFFF"/>
<path d="M87.6 25.625H82.95L80.325 18.075L77.65 25.625H73L77.4 13.125H79.2L83.625 25.625H87.6Z" fill="#00BFFF"/>
<path d="M93.925 25.625H89.275L86.65 18.075L83.975 25.625H79.325L83.725 13.125H80.575L85 25.625H93.925Z" fill="#00BFFF"/>
</svg>
